<svg xmlns:dc="http://purl.org/dc/elements/1.1/" xmlns:cc="http://creativecommons.org/ns#" xmlns:rdf="http://www.w3.org/1999/02/22-rdf-syntax-ns#" xmlns:svg="http://www.w3.org/2000/svg" xmlns="http://www.w3.org/2000/svg" version="1.1" viewBox="0 0 100 125" xml:space="preserve" style="" x="0px" y="0px" fill="#000000"><path d="M 12.5,5 C 9.9632538,5 8.0183733,5.7316267 6.75,7 5.5367735,8.3235198 5,10.073547 5,12.5 l 0,36.1875 c 0,4.080853 3.4742939,7.555147 7.5,7.5 4.191147,0 7.555147,-3.364 7.5,-7.5 L 20,20 48.6875,20 c 4.191146,0 7.555146,-3.364 7.5,-7.5 0,-2.095573 -0.89523,-3.9577301 -2.21875,-5.28125 C 52.64523,5.8952301 50.783073,5 48.6875,5 L 12.5,5 z m 0,3.09375 36.1875,0 c 2.426453,0 4.40625,1.979797 4.40625,4.40625 0,2.426453 -1.979797,4.40625 -4.40625,4.40625 l -31.78125,0 0,31.78125 c 0,2.426453 -1.979797,4.40625 -4.40625,4.40625 -1.213226,0 -2.32905,-0.45405 -3.15625,-1.28125 -0.8271999,-0.8272 -1.25,-1.911773 -1.25,-3.125 l 0,-36.1875 c 0,-1.544107 0.27574,-2.7132401 0.9375,-3.375 C 9.6930099,8.46324 10.8456,8.09375 12.5,8.09375 z m 19.40625,16.3125 c -2.536746,0 -4.450376,0.731626 -5.71875,2 -1.213226,1.32352 -1.78125,3.073547 -1.78125,5.5 l 0,36.1875 c 0,4.080853 3.474294,7.555147 7.5,7.5 4.191147,0 7.555147,-3.364 7.5,-7.5 l 0,-28.6875 28.6875,0 c 4.191146,0 7.555146,-3.364 7.5,-7.5 0,-2.095573 -0.89523,-3.95773 -2.21875,-5.28125 -1.32352,-1.32352 -3.185677,-2.21875 -5.28125,-2.21875 l -36.1875,0 z m 0,3.09375 36.1875,0 c 2.426453,0 4.40625,1.979797 4.40625,4.40625 0,2.426453 -1.979797,4.40625 -4.40625,4.40625 l -31.78125,0 0,31.78125 c 0,2.426453 -1.979797,4.40625 -4.40625,4.40625 -1.213226,0 -2.297801,-0.45405 -3.125,-1.28125 C 27.95405,70.39155 27.5,69.306977 27.5,68.09375 l 0,-36.1875 c 0,-1.544107 0.27574,-2.681991 0.9375,-3.34375 C 29.09926,27.90074 30.25185,27.5 31.90625,27.5 z M 51.3125,43.8125 c -2.536746,0 -4.450376,0.731626 -5.71875,2 -1.213226,1.32352 -1.78125,3.073547 -1.78125,5.5 l 0,36.1875 c 0,4.080853 3.474294,7.555147 7.5,7.5 4.191147,0 7.555147,-3.364 7.5,-7.5 l 0,-28.6875 28.6875,0 c 4.191146,0 7.555146,-3.364 7.5,-7.5 0,-2.095573 -0.89523,-3.95773 -2.21875,-5.28125 C 91.402584,44.652584 89.595573,43.8125 87.5,43.8125 l -36.1875,0 z m 0.0625,3.15625 36.1875,0 c 2.426453,0 4.40625,1.979796 4.40625,4.40625 0,2.426453 -1.979797,4.40625 -4.40625,4.40625 l -31.78125,0 0,31.78125 c 0,2.426453 -1.979797,4.40625 -4.40625,4.40625 -2.426453,0 -4.461397,-2.034944 -4.40625,-4.40625 l 0,-36.1875 c 0,-1.544107 0.27574,-2.71324 0.9375,-3.375 0.606614,-0.716906 1.81435,-1.03125 3.46875,-1.03125 z" style="" fill="#000000"/><text x="0" y="115" fill="#000000" font-size="5px" font-weight="bold" font-family="'Helvetica Neue', Helvetica, Arial-Unicode, Arial, Sans-serif">Created by ImageCatalog</text><text x="0" y="120" fill="#000000" font-size="5px" font-weight="bold" font-family="'Helvetica Neue', Helvetica, Arial-Unicode, Arial, Sans-serif">from the Noun Project</text></svg>