<?xml version="1.0" encoding="utf-8"?>
<!-- Generator: Adobe Illustrator 18.1.1, SVG Export Plug-In . SVG Version: 6.00 Build 0)  -->
<!DOCTYPE svg PUBLIC "-//W3C//DTD SVG 1.1//EN" "http://www.w3.org/Graphics/SVG/1.1/DTD/svg11.dtd">
<svg version="1.1" id="Capa_1" xmlns="http://www.w3.org/2000/svg" xmlns:xlink="http://www.w3.org/1999/xlink" x="0px" y="0px"
	 viewBox="409.4 0 23 23" enable-background="new 409.4 0 23 23" xml:space="preserve">
<g>
	<path fill="#292C7E" d="M420.7,6.6c2.2-1,4.1-2.4,5.8-4c-2.8-1.6-6.2-2.1-9.4-0.8c-0.1,0.1-0.2,0.1-0.3,0.2
		C418.3,3.4,419.6,4.9,420.7,6.6z"/>
	<path fill="#292C7E" d="M431.6,10.7c-0.1-1-0.3-1.9-0.7-2.9c-0.7-1.7-1.8-3.2-3.2-4.3c-1.8,1.8-3.9,3.3-6.3,4.4
		c0.6,1,1.1,2.1,1.5,3.1c0.1,0.3,0.2,0.5,0.3,0.7C426,10.9,428.7,10.5,431.6,10.7z"/>
	<path fill="#292C7E" d="M421.8,12.2c-0.1-0.2-0.2-0.5-0.3-0.7c-0.4-1.1-0.9-2.1-1.5-3c-0.1,0.1-0.2,0.1-0.4,0.2
		c-3,1.2-6.1,1.8-9.3,1.8c-0.2,1.7,0,3.5,0.7,5.3c0.4,1,0.9,1.8,1.5,2.6c2.5-2.6,5.3-4.6,8.7-5.9C421.5,12.3,421.7,12.3,421.8,12.2z
		"/>
	<path fill="#292C7E" d="M423.7,13.1c0.8,2.8,1.2,5.6,1,8.6c0.1-0.1,0.2-0.1,0.3-0.1c4-1.6,6.5-5.4,6.7-9.4
		C428.9,12,426.3,12.3,423.7,13.1z"/>
	<path fill="#292C7E" d="M419.2,7.3c0.1,0,0.1-0.1,0.1-0.1c-1.1-1.6-2.4-3.1-3.9-4.5c-2.3,1.4-3.9,3.7-4.6,6.2
		C413.7,8.9,416.5,8.4,419.2,7.3z"/>
	<path fill="#292C7E" d="M422.3,13.6c-0.2,0.1-0.3,0.1-0.4,0.2c-3.2,1.3-5.9,3.1-8.3,5.6c2.5,2.4,6.1,3.5,9.5,2.8
		C423.4,19.2,423.1,16.4,422.3,13.6z"/>
</g>
</svg>
