<?xml version="1.0" encoding="utf-8"?>
<!-- Generator: Adobe Illustrator 18.1.1, SVG Export Plug-In . SVG Version: 6.00 Build 0)  -->
<!DOCTYPE svg PUBLIC "-//W3C//DTD SVG 1.1//EN" "http://www.w3.org/Graphics/SVG/1.1/DTD/svg11.dtd">
<svg version="1.1" id="Capa_1" xmlns="http://www.w3.org/2000/svg" xmlns:xlink="http://www.w3.org/1999/xlink" x="0px" y="0px"
	 viewBox="409.4 0 23 23" enable-background="new 409.4 0 23 23" xml:space="preserve">
<g>
	<path fill="#292C7E" d="M421.1,8c-1.9,0-3.5,1.6-3.5,3.5s1.6,3.5,3.5,3.5c1.9,0,3.5-1.6,3.5-3.5S423,8,421.1,8z"/>
	<path fill="#292C7E" d="M424.7,1.1h-7.3c-3.8,0-6.8,3-6.8,6.8v7.2c0,3.8,3,6.8,6.8,6.8h7.2c3.8,0,6.8-3,6.8-6.8V7.9
		C431.5,4.2,428.4,1.1,424.7,1.1z M421.1,17c-3,0-5.4-2.5-5.4-5.4s2.5-5.4,5.4-5.4c2.9,0,5.4,2.5,5.4,5.4S424.1,17,421.1,17z
		 M426.5,7.4c-0.7,0-1.3-0.6-1.3-1.3s0.6-1.3,1.3-1.3c0.7,0,1.3,0.6,1.3,1.3C427.7,6.8,427.2,7.4,426.5,7.4z"/>
</g>
</svg>
