<?xml version="1.0" encoding="utf-8"?>
<!-- Generator: Adobe Illustrator 18.1.1, SVG Export Plug-In . SVG Version: 6.00 Build 0)  -->
<!DOCTYPE svg PUBLIC "-//W3C//DTD SVG 1.1//EN" "http://www.w3.org/Graphics/SVG/1.1/DTD/svg11.dtd">
<svg version="1.1" id="Capa_1" xmlns="http://www.w3.org/2000/svg" xmlns:xlink="http://www.w3.org/1999/xlink" x="0px" y="0px"
	 viewBox="498.4 0 35 28" enable-background="new 498.4 0 35 28" xml:space="preserve">
<path fill="#FFFFFC" d="M511.3,27.4c-6.2,0-11.1-3-11.2-3c-0.4-0.4-0.7-0.9-0.4-1.4c0.2-0.5,0.7-0.9,1.2-0.8
	c3.3,0.4,5.6-0.6,6.9-1.4c-3.1-2.3-9.9-8.9-5.6-18.4c0.2-0.4,0.5-0.6,1-0.7c0.4,0,0.9,0.2,1.1,0.5c0.2,0.2,3.1,4.7,10.5,5.6
	c0-4,3.3-7.2,7.2-7.2c1.8,0,3.5,0.6,4.8,1.9c1.9-0.3,3.4-0.3,3.5-0.3c0.2,0,1.1,0,1.2,0.1c0.6,0.3,0.9,0.9,0.7,1.5
	c-0.3,0.5-1.2,3.3-2.7,4.7c0.4,3.3-0.4,8.3-5.9,13.9C519.7,26.2,515.3,27.4,511.3,27.4z"/>
</svg>
