<?xml version="1.0" encoding="utf-8"?>
<!-- Generator: Adobe Illustrator 18.1.1, SVG Export Plug-In . SVG Version: 6.00 Build 0)  -->
<!DOCTYPE svg PUBLIC "-//W3C//DTD SVG 1.1//EN" "http://www.w3.org/Graphics/SVG/1.1/DTD/svg11.dtd">
<svg version="1.1" id="Capa_1" xmlns="http://www.w3.org/2000/svg" xmlns:xlink="http://www.w3.org/1999/xlink" x="0px" y="0px"
	 viewBox="498.4 0 35 30" enable-background="new 498.4 0 35 30" xml:space="preserve">
<g>
	<path fill="#FFFFFC" d="M516.5,8.5c2.9-0.9,5.7-2.2,8.1-4c-3.2-2.6-7.5-3.7-11.8-2.7c-0.2,0-0.3,0.1-0.5,0.1
		C514,4,515.3,6.1,516.5,8.5z"/>
	<path fill="#FFFFFC" d="M529.6,15.7c0.1-1.2-0.1-2.5-0.4-3.8c-0.6-2.3-1.7-4.4-3.2-6.1c-2.7,2-5.6,3.5-8.8,4.4
		c0.6,1.4,0.9,2.8,1.3,4.2c0.1,0.3,0.2,0.7,0.2,0.9C522.3,14.9,526,15,529.6,15.7z"/>
	<path fill="#FFFFFC" d="M516.9,15.8c-0.1-0.3-0.1-0.6-0.2-0.8c-0.4-1.4-0.7-2.8-1.3-4.1c-0.2,0-0.3,0.1-0.5,0.1
		c-4,0.9-8.1,1.1-12.1,0.5c-0.6,2.1-0.7,4.5-0.1,6.8c0.3,1.3,0.7,2.5,1.4,3.5c3.5-2.8,7.6-4.8,12.1-5.9
		C516.5,15.9,516.6,15.8,516.9,15.8z"/>
	<path fill="#FFFFFC" d="M519.1,17.3c0.6,3.7,0.4,7.4-0.4,11.1c0.1,0,0.3-0.1,0.4-0.1c5.4-1.3,9.3-5.6,10.3-10.7
		C526,16.9,522.5,16.9,519.1,17.3z"/>
	<path fill="#FFFFFC" d="M514.5,9L514.5,9c-1-2.3-2.4-4.5-4.1-6.4c-3.2,1.4-5.6,3.9-7,7C507.1,10.2,510.8,10,514.5,9z"/>
	<path fill="#FFFFFC" d="M517.2,17.7c-0.2,0-0.4,0.1-0.6,0.1c-4.3,1-8.1,2.9-11.5,5.6c2.7,3.5,7,5.6,11.6,5.3
		C517.6,25.1,517.8,21.3,517.2,17.7z"/>
</g>
</svg>
