<?xml version="1.0" encoding="utf-8"?>
<!-- Generator: Adobe Illustrator 18.1.1, SVG Export Plug-In . SVG Version: 6.00 Build 0)  -->
<!DOCTYPE svg PUBLIC "-//W3C//DTD SVG 1.1//EN" "http://www.w3.org/Graphics/SVG/1.1/DTD/svg11.dtd">
<svg version="1.1" id="Capa_1" xmlns="http://www.w3.org/2000/svg" xmlns:xlink="http://www.w3.org/1999/xlink" x="0px" y="0px"
	 viewBox="498.4 0 35 28" enable-background="new 498.4 0 35 28" xml:space="preserve">
<g>
	<path fill="#FFFFFC" d="M515.6,9.5c-2.5,0-4.6,2.1-4.6,4.6s2.1,4.6,4.6,4.6s4.6-2.1,4.6-4.6S518.1,9.5,515.6,9.5z"/>
	<path fill="#FFFFFC" d="M520.3,0.5h-9.5c-4.9,0-8.8,3.9-8.8,8.8v9.4c0,4.9,3.9,8.8,8.8,8.8h9.4c4.9,0,8.8-3.9,8.8-8.8V9.3
		C529.1,4.5,525.1,0.5,520.3,0.5z M515.6,21.1c-3.9,0-7-3.2-7-7s3.2-7,7-7s7,3.2,7,7S519.5,21.1,515.6,21.1z M522.6,8.7
		c-0.9,0-1.7-0.8-1.7-1.7s0.8-1.7,1.7-1.7c0.9,0,1.7,0.8,1.7,1.7C524.2,7.9,523.5,8.7,522.6,8.7z"/>
</g>
</svg>
