<?xml version="1.0" encoding="utf-8"?>
<!-- Generator: Adobe Illustrator 18.1.1, SVG Export Plug-In . SVG Version: 6.00 Build 0)  -->
<!DOCTYPE svg PUBLIC "-//W3C//DTD SVG 1.1//EN" "http://www.w3.org/Graphics/SVG/1.1/DTD/svg11.dtd">
<svg version="1.1" id="Capa_1" xmlns="http://www.w3.org/2000/svg" xmlns:xlink="http://www.w3.org/1999/xlink" x="0px" y="0px"
	 viewBox="0 0 150 150" enable-background="new 0 0 150 150" xml:space="preserve">
<g>
	<linearGradient id="SVGID_1_" gradientUnits="userSpaceOnUse" x1="58.054" y1="70.4959" x2="91.4149" y2="70.4959">
		<stop  offset="0" style="stop-color:#0055B8"/>
		<stop  offset="0.1209" style="stop-color:#0055B8"/>
		<stop  offset="0.3077" style="stop-color:#61B4E4"/>
		<stop  offset="0.5659" style="stop-color:#8FC7E8"/>
		<stop  offset="0.7473" style="stop-color:#61B4E4"/>
		<stop  offset="0.8736" style="stop-color:#0055B8"/>
		<stop  offset="0.9945" style="stop-color:#0055B8"/>
	</linearGradient>
	<path fill="url(#SVGID_1_)" d="M77.4,69.1c-0.1-0.8-0.4-1.4-0.7-1.9c3.6-8.5,10.9-13.9,13.4-15.7c0.1,0.1,0.2,0.1,0.4,0.1
		c0.5,0,0.9-0.4,0.9-0.9c0-0.5-0.4-0.9-0.9-0.9c-0.5,0-0.9,0.4-0.9,0.9c0,0,0,0.1,0,0.1C82.8,55,78.1,61.5,76.4,66.9
		c-0.4-0.5-1-0.8-1.6-0.8c-0.7,0-1.3,0.3-1.7,0.8c-1.7-5.4-6.4-12-13.2-16.1c0,0,0-0.1,0-0.1c0-0.5-0.4-0.9-0.9-0.9
		c-0.5,0-0.9,0.4-0.9,0.9c0,0.5,0.4,0.9,0.9,0.9c0.1,0,0.3,0,0.4-0.1c2.6,1.7,9.9,7.2,13.5,15.7c-0.3,0.5-0.6,1.2-0.8,1.9
		c-0.9,2.8,2.4,21.9,2.8,21.9C75.3,91.2,78,72.5,77.4,69.1z"/>
	<linearGradient id="SVGID_2_" gradientUnits="userSpaceOnUse" x1="27.0499" y1="104.8968" x2="122.4072" y2="9.5395">
		<stop  offset="0" style="stop-color:#0055B8"/>
		<stop  offset="0.1209" style="stop-color:#0055B8"/>
		<stop  offset="0.2912" style="stop-color:#61B4E4"/>
		<stop  offset="0.4615" style="stop-color:#8FC7E8"/>
		<stop  offset="0.5769" style="stop-color:#61B4E4"/>
		<stop  offset="0.7473" style="stop-color:#61B4E4"/>
		<stop  offset="0.8736" style="stop-color:#0055B8"/>
		<stop  offset="0.9945" style="stop-color:#0055B8"/>
	</linearGradient>
	<path fill="url(#SVGID_2_)" d="M145.7,33.3c-9.3-5.2-26.7,2.8-37.1,9.3c-10.4,6.5-31,31.5-31,31.5s-0.2-2.6-0.7-4.5
		c-0.1-0.6-0.5-1.4-0.5-1.4l-0.2-0.3c-0.3-0.4-0.7-0.6-1.2-0.6c-0.5,0-1,0.2-1.3,0.6l-0.2,0.3c-0.3,0.4-0.5,0.9-0.6,1.5
		c-0.6,2.2-0.6,4.4-0.6,4.4S51.2,48.6,40.9,42.1c-10.4-6.5-27.8-14.4-37.1-9.3c-5.8,2.8,0.4,8.6,0.4,8.6s10.4,7.8,11.9,16.2
		c1.5,8.4,4.3,21.1,7.1,22.6C26,81.8,38.9,81,38.9,81s-9.5,5-12.1,8c-2.6,3-3.9,4.5-1.9,8.8c1.9,4.3,15.3,23.1,21.6,24.8
		c6.3,1.7,12.7-4.1,17.5-10.1c4.7-6,9.9-13.4,9.5-28.9c-0.8-6.8,1.2,2.8,1.5,2.8c0.4,0,1.8-9.8,1.1-2.4c-0.4,15.5,4.7,22.9,9.5,28.9
		c4.7,6,11.2,11.9,17.5,10.1c6.3-1.7,19.6-20.5,21.6-24.8c1.9-4.3,0.6-5.8-1.9-8.8c-2.6-3-12.1-8-12.1-8s12.9,0.9,15.7-0.6
		c2.8-1.5,5.6-14.2,7.1-22.6c1.5-8.4,11.9-16.2,11.9-16.2S151.5,36.1,145.7,33.3z"/>
	<linearGradient id="SVGID_3_" gradientUnits="userSpaceOnUse" x1="12.1403" y1="77.2541" x2="137.3166" y2="77.2541">
		<stop  offset="0" style="stop-color:#0055B8"/>
		<stop  offset="0.1978" style="stop-color:#0055B8"/>
		<stop  offset="0.3462" style="stop-color:#61B4E4"/>
		<stop  offset="0.511" style="stop-color:#8FC7E8"/>
		<stop  offset="0.6538" style="stop-color:#61B4E4"/>
		<stop  offset="0.7473" style="stop-color:#61B4E4"/>
		<stop  offset="0.8736" style="stop-color:#0055B8"/>
		<stop  offset="0.9945" style="stop-color:#0055B8"/>
	</linearGradient>
	<path fill="url(#SVGID_3_)" d="M135.2,39.8c-7.9-4.4-22.8,2.4-31.6,7.9c-8.8,5.5-26.4,26.8-26.4,26.8s-0.2-2.3-0.6-3.8
		c-0.1-0.5-0.2-0.9-0.5-1.2l-0.2-0.2c-0.3-0.3-0.6-0.5-1-0.5c-0.4,0-0.8,0.2-1.1,0.5l-0.2,0.2c-0.2,0.3-0.4,0.7-0.5,1.3
		c-0.6,1.8-0.6,3.8-0.6,3.8S54.7,52.8,45.9,47.3C37,41.8,22.2,35,14.3,39.4c-5,2.4,0.4,7.4,0.4,7.4s8.8,6.6,10.1,13.8
		c1.3,7.2,3.7,18,6.1,19.3c2.4,1.3,13.4,0.6,13.4,0.6s-8.1,4.2-10.3,6.8c-2.2,2.6-3.3,3.9-1.7,7.5c1.7,3.7,13,19.7,18.4,21.1
		c5.3,1.5,10.8-3.5,14.9-8.6c4-5.1,8.5-11.4,8.1-24.6c-0.7-5.8,1,2.4,1.3,2.4c0.3,0,1.5-8.3,0.9-2c-0.4,13.2,4,19.5,8.1,24.6
		c4,5.1,9.6,10.1,14.9,8.6c5.3-1.5,16.7-17.5,18.4-21.1c1.7-3.7,0.6-5-1.7-7.5c-2.2-2.6-10.3-6.8-10.3-6.8s11,0.7,13.4-0.6
		c2.4-1.3,4.8-12.1,6.1-19.3c1.3-7.2,10.1-13.8,10.1-13.8S140.2,42.2,135.2,39.8z"/>
	<linearGradient id="SVGID_4_" gradientUnits="userSpaceOnUse" x1="51.2486" y1="99.8631" x2="88.4191" y2="35.4819">
		<stop  offset="0" style="stop-color:#0055B8"/>
		<stop  offset="0.1209" style="stop-color:#0055B8"/>
		<stop  offset="0.3077" style="stop-color:#61B4E4"/>
		<stop  offset="0.5659" style="stop-color:#8FC7E8"/>
		<stop  offset="0.7473" style="stop-color:#61B4E4"/>
		<stop  offset="0.8736" style="stop-color:#0055B8"/>
		<stop  offset="0.9945" style="stop-color:#0055B8"/>
	</linearGradient>
	<path fill="url(#SVGID_4_)" d="M116.2,51.5c-5.4-3-15.6,1.6-21.7,5.4c-6.1,3.8-18.1,18.4-18.1,18.4s-0.1-1.5-0.4-2.6
		c-0.1-0.3-0.3-0.8-0.3-0.8s0,0.1-0.1-0.2c-0.2-0.3-0.4-0.3-0.7-0.4c-0.3,0-0.6,0.1-0.8,0.4L74,71.9c-0.2,0.2-0.3,0.5-0.4,0.9
		c-0.4,1.3-0.4,2.6-0.4,2.6S61,60.5,54.9,56.7c-6-3.8-16.3-8.4-21.7-5.4c-3.4,1.6,0.3,5,0.3,5s6,4.5,6.9,9.5
		c0.9,4.9,2.5,12.4,4.2,13.2c1.6,0.9,9.2,0.4,9.2,0.4s-5.5,2.9-7.1,4.7c-1.5,1.8-2.3,2.7-1.1,5.2c1.1,2.5,9,13.5,12.6,14.5
		c3.7,1,7.4-2.4,10.2-5.9c2.8-3.5,5.8-7.8,5.5-16.9c-0.5-4,0.7,1.6,0.9,1.6c0.2,0,1-5.7,0.6-1.4c-0.3,9.1,2.8,13.4,5.5,16.9
		c2.8,3.5,6.6,6.9,10.2,5.9c3.7-1,11.5-12,12.6-14.5c1.1-2.5,0.4-3.4-1.1-5.2c-1.5-1.8-7.1-4.7-7.1-4.7s7.6,0.5,9.2-0.4
		c1.6-0.9,3.3-8.3,4.2-13.2c0.9-4.9,6.9-9.5,6.9-9.5S119.6,53.2,116.2,51.5z"/>
</g>
</svg>
