<?xml version="1.0" encoding="utf-8"?>
<!-- Generator: Adobe Illustrator 18.1.1, SVG Export Plug-In . SVG Version: 6.00 Build 0)  -->
<!DOCTYPE svg PUBLIC "-//W3C//DTD SVG 1.1//EN" "http://www.w3.org/Graphics/SVG/1.1/DTD/svg11.dtd">
<svg version="1.1" id="Capa_1" xmlns="http://www.w3.org/2000/svg" xmlns:xlink="http://www.w3.org/1999/xlink" x="0px" y="0px"
	 viewBox="0 0 80 83" enable-background="new 0 0 80 83" xml:space="preserve">
<path fill="#FFFFFF" d="M41.2,24.3v9.8H49C47.5,30.1,44.7,26.6,41.2,24.3z M28.8,42.1c0,1.6,0.2,3.1,0.5,4.6h8.8v-9.4h-8.7
	C29,38.8,28.8,40.4,28.8,42.1z M30.3,34.1h7.8v-9.8C34.6,26.6,31.8,30.1,30.3,34.1z M25.7,42.1c0-1.6,0.2-3.2,0.5-4.8h-4.6
	c-0.4,1.5-0.6,3.1-0.6,4.7c0,1.6,0.2,3.2,0.6,4.7h4.6C25.8,45.2,25.7,43.6,25.7,42.1z M33.1,24.3c-4.6,1.8-8.4,5.3-10.5,9.8H27
	C28.2,30.3,30.3,27,33.1,24.3z M22.6,49.8c2,4.4,5.7,7.9,10.3,9.7c-2.8-2.6-4.8-6-6-9.7H22.6z M38.1,59.6v-9.8h-7.9
	C31.7,53.8,34.5,57.3,38.1,59.6z M46.2,24.3c2.8,2.7,4.9,6,6.1,9.8h4.3C54.6,29.6,50.8,26.1,46.2,24.3z M53.6,42.1
	c0,1.6-0.2,3.1-0.4,4.6h4.6c0.4-1.5,0.6-3.1,0.6-4.7c0-1.6-0.2-3.2-0.6-4.7h-4.6C53.4,38.8,53.6,40.4,53.6,42.1z M50.5,42.1
	c0-1.6-0.2-3.3-0.5-4.8h-8.7v9.4H50C50.3,45.2,50.5,43.6,50.5,42.1z M41.2,49.8v9.8c3.6-2.3,6.3-5.7,7.9-9.8H41.2z M46.4,59.5
	c4.6-1.8,8.3-5.3,10.3-9.7h-4.3C51.2,53.5,49.1,56.8,46.4,59.5z M76.3,28.8c0-1.3-0.1-2.5-0.5-3.7c-1.2-3.5-3.1-6.4-6.3-8.3
	c-7.5-4.4-15.1-8.7-22.6-13.1c-2-1.2-4.2-1.8-6.6-1.9c-2.6-0.1-5,0.4-7.3,1.7C25.2,8,17.6,12.3,10,16.8c-4.5,2.7-6.9,6.8-6.9,12
	c-0.1,8.8,0,17.5,0,26.3c0,1.3,0.2,2.7,0.6,3.9c1.2,3.4,3.1,6.2,6.3,8c7.5,4.3,15,8.6,22.5,13c2,1.1,4,1.8,6.3,1.9
	c2.8,0.2,5.4-0.3,7.8-1.7c7.6-4.4,15.1-8.8,22.7-13.1c2.1-1.2,3.7-2.9,5-4.9c1.2-2,2-4.1,2.1-6.5c0-4.6,0-9.2,0-13.8h0
	C76.3,37.5,76.2,33.1,76.3,28.8z M39.6,63.9c-12.1,0-21.9-9.8-21.9-21.9c0-12.1,9.8-22,21.9-22s21.9,9.9,21.9,22
	C61.5,54,51.7,63.9,39.6,63.9z"/>
</svg>
